<svg xmlns="http://www.w3.org/2000/svg" viewBox="0 0 100 100" width="100" height="100">
  <defs>
    <!-- Gradientes para icono -->
    <linearGradient id="iconPrimary" x1="0%" y1="0%" x2="100%" y2="100%">
      <stop offset="0%" style="stop-color:#0f172a;stop-opacity:1" />
      <stop offset="50%" style="stop-color:#334155;stop-opacity:1" />
      <stop offset="100%" style="stop-color:#475569;stop-opacity:1" />
    </linearGradient>
    
    <linearGradient id="iconAccent" x1="0%" y1="0%" x2="100%" y2="100%">
      <stop offset="0%" style="stop-color:#0ea5e9;stop-opacity:1" />
      <stop offset="100%" style="stop-color:#6366f1;stop-opacity:1" />
    </linearGradient>
    
    <linearGradient id="iconGold" x1="0%" y1="0%" x2="100%" y2="100%">
      <stop offset="0%" style="stop-color:#f59e0b;stop-opacity:1" />
      <stop offset="100%" style="stop-color:#d97706;stop-opacity:1" />
    </linearGradient>

    <filter id="iconShadow" x="-20%" y="-20%" width="140%" height="140%">
      <feGaussianBlur in="SourceAlpha" stdDeviation="2"/>
      <feOffset dx="0" dy="2" result="offset"/>
      <feFlood flood-color="#0f172a" flood-opacity="0.3"/>
      <feComposite in2="offset" operator="in"/>
      <feMerge>
        <feMergeNode/>
        <feMergeNode in="SourceGraphic"/>
      </feMerge>
    </filter>
  </defs>

  <!-- Fondo circular -->
  <circle cx="50" cy="50" r="45" fill="url(#iconPrimary)" filter="url(#iconShadow)"/>
  <circle cx="50" cy="50" r="42" fill="none" stroke="url(#iconAccent)" stroke-width="1" opacity="0.4"/>
  
  <!-- Psi simplificado -->
  <g transform="translate(50, 45)" fill="white">
    <!-- Hemisferios -->
    <path d="M -10 -12 Q -10 -16 -7 -16 Q -4 -16 -4 -12 L -4 -3 Q -4 0 -7 0 Q -10 0 -10 -3 Z" opacity="0.95"/>
    <path d="M 10 -12 Q 10 -16 7 -16 Q 4 -16 4 -12 L 4 -3 Q 4 0 7 0 Q 10 0 10 -3 Z" opacity="0.95"/>
    
    <!-- Tallo -->
    <rect x="-1" y="-3" width="2" height="15" rx="1"/>
    
    <!-- Conexión superior -->
    <path d="M -7 -16 Q 0 -20 7 -16" stroke="white" stroke-width="1.5" fill="none" opacity="0.8"/>
    
    <!-- Puntos neurales -->
    <circle cx="-7" cy="-15" r="1" opacity="0.7"/>
    <circle cx="0" cy="-18" r="1" opacity="0.7"/>
    <circle cx="7" cy="-15" r="1" opacity="0.7"/>
  </g>

  <!-- Iniciales AN en la parte inferior -->
  <g transform="translate(50, 75)">
    <text x="0" y="0" 
          text-anchor="middle"
          font-family="'Playfair Display', serif" 
          font-size="14" 
          font-weight="700" 
          fill="url(#iconGold)" 
          opacity="0.9"
          letter-spacing="1px">
      AN
    </text>
  </g>

  <!-- Anillo decorativo -->
  <circle cx="50" cy="50" r="47" fill="none" stroke="url(#iconGold)" stroke-width="0.5" opacity="0.3"/>
</svg>
