<svg width="800" height="600" xmlns="http://www.w3.org/2000/svg">
  <defs>
    <linearGradient id="attendanceGrad" x1="0%" y1="0%" x2="100%" y2="100%">
      <stop offset="0%" style="stop-color:#ffffff;stop-opacity:1" />
      <stop offset="50%" style="stop-color:#f8f9fa;stop-opacity:1" />
      <stop offset="100%" style="stop-color:#e9ecef;stop-opacity:1" />
    </linearGradient>
  </defs>
  
  <!-- Fondo -->
  <rect width="800" height="600" fill="url(#attendanceGrad)" stroke="#007bff" stroke-width="3"/>
  
  <!-- Borde principal -->
  <rect x="15" y="15" width="770" height="570" fill="none" stroke="#007bff" stroke-width="2"/>
  
  <!-- Header decorativo -->
  <rect x="0" y="0" width="800" height="80" fill="#007bff" opacity="0.1"/>
  <rect x="0" y="520" width="800" height="80" fill="#007bff" opacity="0.1"/>
  
  <!-- Elementos decorativos -->
  <polygon points="50,50 70,30 90,50 70,70" fill="#007bff" opacity="0.3"/>
  <polygon points="710,50 730,30 750,50 730,70" fill="#007bff" opacity="0.3"/>
  <polygon points="50,550 70,530 90,550 70,570" fill="#007bff" opacity="0.3"/>
  <polygon points="710,550 730,530 750,550 730,570" fill="#007bff" opacity="0.3"/>
  
  <!-- Líneas de firma -->
  <line x1="200" y1="480" x2="350" y2="480" stroke="#6c757d" stroke-width="1"/>
  <line x1="450" y1="480" x2="600" y2="480" stroke="#6c757d" stroke-width="1"/>
  
  <!-- Texto placeholder -->
  <text x="400" y="50" text-anchor="middle" font-family="sans-serif" font-size="12" fill="#007bff">CERTIFICADO OFICIAL</text>
  <text x="275" y="500" text-anchor="middle" font-family="sans-serif" font-size="10" fill="#6c757d">Firma Autorizada</text>
  <text x="525" y="500" text-anchor="middle" font-family="sans-serif" font-size="10" fill="#6c757d">Fecha</text>
</svg>
