<svg xmlns="http://www.w3.org/2000/svg" width="1122" height="794" viewBox="0 0 1122 794">
  <defs>
    <linearGradient id="bgGrad" x1="0%" y1="0%" x2="100%" y2="100%">
      <stop offset="0%" style="stop-color:#f8f9fa;stop-opacity:1" />
      <stop offset="100%" style="stop-color:#e9ecef;stop-opacity:1" />
    </linearGradient>
    <linearGradient id="borderGrad" x1="0%" y1="0%" x2="100%" y2="0%">
      <stop offset="0%" style="stop-color:#003366;stop-opacity:1" />
      <stop offset="50%" style="stop-color:#5ca92c;stop-opacity:1" />
      <stop offset="100%" style="stop-color:#C9B179;stop-opacity:1" />
    </linearGradient>
  </defs>
  
  <!-- Background -->
  <rect width="1122" height="794" fill="url(#bgGrad)"/>
  
  <!-- Decorative border -->
  <rect x="30" y="30" width="1062" height="734" fill="none" stroke="url(#borderGrad)" stroke-width="6"/>
  <rect x="45" y="45" width="1032" height="704" fill="none" stroke="url(#borderGrad)" stroke-width="3"/>
  
  <!-- Corner decorations -->
  <circle cx="80" cy="80" r="20" fill="#C9B179" opacity="0.3"/>
  <circle cx="1042" cy="80" r="20" fill="#C9B179" opacity="0.3"/>
  <circle cx="80" cy="714" r="20" fill="#C9B179" opacity="0.3"/>
  <circle cx="1042" cy="714" r="20" fill="#C9B179" opacity="0.3"/>
  
  <!-- Header decoration -->
  <rect x="150" y="100" width="822" height="4" fill="#5ca92c"/>
  <rect x="200" y="110" width="722" height="2" fill="#C9B179"/>
  
  <!-- Footer decoration -->
  <rect x="150" y="680" width="822" height="4" fill="#5ca92c"/>
  <rect x="200" y="670" width="722" height="2" fill="#C9B179"/>
  
  <!-- Central ornament -->
  <g transform="translate(561,150)">
    <circle r="35" fill="none" stroke="#003366" stroke-width="3"/>
    <circle r="22" fill="#5ca92c" opacity="0.2"/>
    <polygon points="0,-15 12,12 -12,12" fill="#C9B179"/>
  </g>
  
  <!-- Title area indicator -->
  <text x="561" y="220" text-anchor="middle" font-family="serif" font-size="32" fill="#666" opacity="0.3">CERTIFICADO DE PARTICIPACIÓN</text>
  
  <!-- Content area guidelines -->
  <rect x="150" y="280" width="822" height="100" fill="none" stroke="#ddd" stroke-width="1" stroke-dasharray="8,8" opacity="0.3"/>
  <text x="561" y="315" text-anchor="middle" font-family="sans-serif" font-size="18" fill="#999">Área de contenido principal</text>
  
  <rect x="150" y="400" width="822" height="80" fill="none" stroke="#ddd" stroke-width="1" stroke-dasharray="8,8" opacity="0.3"/>
  <text x="561" y="435" text-anchor="middle" font-family="sans-serif" font-size="18" fill="#999">Nombre del participante</text>
  
  <rect x="150" y="500" width="822" height="80" fill="none" stroke="#ddd" stroke-width="1" stroke-dasharray="8,8" opacity="0.3"/>
  <text x="561" y="535" text-anchor="middle" font-family="sans-serif" font-size="18" fill="#999">Detalles del taller</text>
  
  <!-- Signature areas -->
  <line x1="200" y1="620" x2="400" y2="620" stroke="#ccc" stroke-width="2"/>
  <text x="300" y="640" text-anchor="middle" font-family="sans-serif" font-size="14" fill="#999">Firma del instructor</text>
  
  <line x1="722" y1="620" x2="922" y2="620" stroke="#ccc" stroke-width="2"/>
  <text x="822" y="640" text-anchor="middle" font-family="sans-serif" font-size="14" fill="#999">Sello institucional</text>
  
  <!-- Institution info placeholder -->
  <text x="561" y="750" text-anchor="middle" font-family="sans-serif" font-size="12" fill="#999" opacity="0.5">POTENCIAL HUMANO 360 - www.potencialhumano360.com</text>
</svg>
