<?xml version="1.0" encoding="UTF-8"?>
<svg width="800" height="600" viewBox="0 0 800 600" xmlns="http://www.w3.org/2000/svg">
  <defs>
    <!-- Gradientes -->
    <linearGradient id="bgGradient" x1="0%" y1="0%" x2="100%" y2="100%">
      <stop offset="0%" style="stop-color:#2E5BBA;stop-opacity:1" />
      <stop offset="50%" style="stop-color:#1B4A8C;stop-opacity:1" />
      <stop offset="100%" style="stop-color:#0F2A5C;stop-opacity:1" />
    </linearGradient>
    
    <linearGradient id="greenGradient" x1="0%" y1="0%" x2="100%" y2="100%">
      <stop offset="0%" style="stop-color:#4CAF50;stop-opacity:1" />
      <stop offset="50%" style="stop-color:#388E3C;stop-opacity:1" />
      <stop offset="100%" style="stop-color:#1B5E20;stop-opacity:1" />
    </linearGradient>
  </defs>
  
  <!-- Fondo principal -->
  <rect width="800" height="600" fill="url(#bgGradient)"/>
  
  <!-- Formas decorativas verdes -->
  <!-- Forma superior derecha -->
  <path d="M 600 0 Q 800 0 800 200 Q 800 100 700 50 Q 650 0 600 0 Z" fill="url(#greenGradient)" opacity="0.9"/>
  
  <!-- Forma inferior izquierda -->
  <path d="M 0 400 Q 0 600 200 600 Q 100 600 50 500 Q 0 450 0 400 Z" fill="url(#greenGradient)" opacity="0.9"/>
  
  <!-- Ondas decorativas -->
  <path d="M 550 0 Q 650 50 750 0 Q 650 100 550 50 Z" fill="#81C784" opacity="0.7"/>
  <path d="M 0 550 Q 100 500 200 550 Q 100 600 0 550 Z" fill="#81C784" opacity="0.7"/>
  
  <!-- Contornos adicionales -->
  <path d="M 580 20 Q 680 70 780 20" stroke="#A5D6A7" stroke-width="3" fill="none" opacity="0.8"/>
  <path d="M 20 580 Q 120 530 220 580" stroke="#A5D6A7" stroke-width="3" fill="none" opacity="0.8"/>
  
  <!-- Marco del certificado -->
  <rect x="40" y="40" width="720" height="520" fill="white" rx="20" ry="20"/>
  <rect x="50" y="50" width="700" height="500" fill="none" stroke="#2E5BBA" stroke-width="2" rx="15" ry="15"/>
  
  <!-- Líneas decorativas -->
  <line x1="200" y1="400" x2="600" y2="400" stroke="#2E5BBA" stroke-width="2"/>
  <line x1="200" y1="480" x2="600" y2="480" stroke="#2E5BBA" stroke-width="1"/>
</svg>
